<svg id="Layer_1" data-name="Layer 1" xmlns="http://www.w3.org/2000/svg" viewBox="0 0 99.1 135.1"><path d="M47,29.4c-.2-1.3-1.9-17.3,5.3-25.7,3.5-4.1,8.9-3,12.2-.2s6.9,12.9,1.7,25.9" fill="none" stroke="#2b3747" stroke-miterlimit="10" stroke-width="2"/><polygon points="99.1 128.8 87.5 120.3 83.7 22.4 89.9 22.1 99.1 128.8" fill="#03a4ea"/><polygon points="87.5 120.3 77.8 135.1 81.4 22.1 83.7 22.1 87.5 120.3" fill="#2b3747"/><polygon points="77.8 135.1 0 126.1 14 22.1 82.4 22.1 77.8 135.1" fill="#03a4ea"/><polyline points="87.5 120.3 99.1 128.8 77.8 135.1" fill="#0c90d1"/><polyline points="19.7 112 31 99.9 33.3 77.6 60.7 123.9 66.4 45.6 54 55.5 51.9 84.1 26.4 35.1" fill="#fff"/><path d="M38.6,31.4c-.2-1.3-1.9-16.3,5.3-24.7,3.5-4.1,11.9-4,15.3-1.2s5.8,11.9.6,24.9" fill="none" stroke="#2b3747" stroke-miterlimit="10" stroke-width="2"/></svg>