<svg id="Layer_1" data-name="Layer 1" xmlns="http://www.w3.org/2000/svg" viewBox="0 0 609.3 134"><path d="M299.1,28.3c-.2-1.3-1.9-17.3,5.3-25.7,3.5-4.1,8.8-3,12.2-.2s6.9,12.9,1.7,25.9" fill="none" stroke="#2b3747" stroke-miterlimit="10" stroke-width="2"/><path d="M59.4,69.3a26.1,26.1,0,0,1-2,10.2,23.7,23.7,0,0,1-5.7,8.1A26.3,26.3,0,0,1,43.3,93,27,27,0,0,1,33,94.9H14.2v23.8H0v-75H33a27,27,0,0,1,10.3,2A27.9,27.9,0,0,1,51.7,51a25.8,25.8,0,0,1,5.7,8.1A26.9,26.9,0,0,1,59.4,69.3Zm-14.5,0a11.8,11.8,0,0,0-.9-4.6,12.8,12.8,0,0,0-2.6-3.8,12.5,12.5,0,0,0-3.8-2.5,10.6,10.6,0,0,0-4.6-1H14.2V81.2H33a12.2,12.2,0,0,0,4.6-.9,12.8,12.8,0,0,0,3.8-2.6,11.1,11.1,0,0,0,3.5-8.4Z" fill="#2b3747"/><path d="M66.9,43.7H81.1v75H66.9Z" fill="#2b3747"/><path d="M128.8,42a43.3,43.3,0,0,1,13.1,2,37.9,37.9,0,0,1,11.2,5.6,37.4,37.4,0,0,1,8.4,8.9,36.4,36.4,0,0,1,5,11.6H151.9a26.5,26.5,0,0,0-9.3-10.4,25.7,25.7,0,0,0-23.7-2,27,27,0,0,0-8.1,5.5,25.6,25.6,0,0,0-5.5,28,24.6,24.6,0,0,0,5.5,8.2,25,25,0,0,0,8.1,5.4,23.7,23.7,0,0,0,9.9,2,24.5,24.5,0,0,0,13.8-4,24.9,24.9,0,0,0,9.3-10.5h14.6a34.9,34.9,0,0,1-13.4,20.5,35.9,35.9,0,0,1-11.2,5.7,43.2,43.2,0,0,1-13.1,1.9,41.2,41.2,0,0,1-28.5-11.2,40,40,0,0,1-8.6-12.4,38.5,38.5,0,0,1-3.1-15.6,37.7,37.7,0,0,1,3.1-15.5,38.8,38.8,0,0,1,8.6-12.4A40.7,40.7,0,0,1,128.8,42Z" fill="#2b3747"/><path d="M235.9,118.7h-18l-23.6-27-6.6,7.5v19.5H174v-75h13.7V78.4l30.2-34.7h18L203.3,81.2Z" fill="#2b3747"/><path d="M398.3,57.4v61.3H384.2V57.4H361.9V43.7h58.5V57.4Z" fill="#2b3747"/><path d="M481.3,118.7H466.1l-4.8-13.6h-28l-4.7,13.6H413.2l26.5-75H455ZM456.5,91.4l-8.8-30.5h-.8l-8.8,30.5Z" fill="#2b3747"/><path d="M548.7,118.7h-18l-23.6-27-6.6,7.5v19.5H486.8v-75h13.7V78.4l30.2-34.7h18L516.1,81.2Z" fill="#2b3747"/><path d="M609.3,105.1v13.6H554.2v-75h55.1V57.4H568.4V74.3h34V88h-34v17.1Z" fill="#2b3747"/><polygon points="351.2 127.8 339.6 119.2 335.8 21.3 342 21.1 351.2 127.8" fill="#03a4ea"/><polygon points="339.6 119.2 329.9 134 333.5 21.1 335.8 21.1 339.6 119.2" fill="#2b3747"/><polygon points="329.9 134 252.1 125 266.1 21.1 334.5 21.1 329.9 134" fill="#03a4ea"/><polyline points="339.6 119.2 351.2 127.8 329.9 134" fill="#0c90d1"/><polyline points="271.8 110.9 283.1 98.8 285.4 76.5 312.8 122.8 318.5 44.6 306.1 54.4 304 83 278.5 34" fill="#fff"/><path d="M290.7,30.3C290.5,29,288.8,14,296,5.6c3.5-4.1,11.9-4,15.3-1.2s5.8,11.9.6,24.9" fill="none" stroke="#2b3747" stroke-miterlimit="10" stroke-width="2"/></svg>